<?xml version="1.0" standalone="no"?>
<!DOCTYPE svg PUBLIC "-//W3C//DTD SVG 20010904//EN"
 "http://www.w3.org/TR/2001/REC-SVG-20010904/DTD/svg10.dtd">
<svg version="1.0" xmlns="http://www.w3.org/2000/svg"
 width="460.000000pt" height="460.000000pt" viewBox="0 0 460.000000 460.000000"
 preserveAspectRatio="xMidYMid meet">
<metadata>
Created by potrace 1.11, written by Peter Selinger 2001-2013
</metadata>
<g transform="translate(0.000000,460.000000) scale(0.100000,-0.100000)"
fill="#000000" stroke="none">
<path d="M1514 4286 c-129 -25 -241 -103 -290 -204 -12 -23 -20 -67 -22 -119
-5 -98 12 -143 81 -214 88 -92 219 -139 384 -139 60 0 103 -4 103 -10 0 -16
-120 -271 -163 -345 -113 -196 -243 -310 -419 -367 -75 -24 -104 -28 -201 -28
-172 0 -289 39 -390 129 -113 102 -119 251 -17 401 60 88 133 145 250 196 61
27 74 29 196 29 130 0 131 0 199 -35 92 -48 128 -97 133 -185 4 -55 0 -73 -22
-120 -34 -69 -110 -138 -184 -165 -128 -48 -226 -49 -361 -4 -40 14 -75 23
-78 21 -9 -10 29 -28 112 -52 75 -22 103 -26 170 -22 140 9 265 68 328 155 47
64 60 110 55 196 -3 60 -9 82 -33 122 -60 97 -188 154 -349 154 -219 0 -415
-109 -498 -278 -31 -63 -33 -73 -33 -177 0 -103 2 -113 29 -163 54 -97 138
-157 286 -204 64 -20 94 -23 210 -22 154 2 246 21 367 79 221 104 352 258 498
582 l60 133 80 26 c284 94 515 312 515 487 0 85 -54 113 -163 83 -62 -18 -173
-84 -216 -130 l-24 -25 -61 55 c-74 67 -172 126 -246 148 -77 23 -202 28 -286
12z m218 -21 c120 -26 269 -108 326 -180 l21 -26 -72 -90 c-40 -49 -98 -131
-129 -182 -89 -144 -74 -132 -164 -131 -148 1 -307 66 -392 159 -95 104 -97
232 -6 334 53 59 119 95 209 114 91 20 119 20 207 2z m738 -77 c17 -18 21 -32
17 -65 -14 -130 -182 -304 -378 -391 -63 -28 -158 -56 -165 -49 -13 13 156
317 176 317 5 0 24 -25 42 -55 44 -74 50 -60 7 21 l-34 65 70 67 c39 37 90 78
115 90 60 29 122 29 150 0z"/>
<path d="M3366 4029 c-31 -25 -34 -61 -6 -89 15 -15 33 -20 76 -20 l57 0 -7
43 c-7 45 -43 87 -75 87 -10 0 -30 -9 -45 -21z"/>
<path d="M3460 3804 c0 -8 5 -12 10 -9 6 3 10 10 10 16 0 5 -4 9 -10 9 -5 0
-10 -7 -10 -16z"/>
<path d="M3445 3755 c-4 -11 -13 -35 -21 -52 -8 -18 -21 -50 -30 -70 -9 -21
-29 -65 -45 -97 -16 -32 -29 -63 -29 -68 0 -17 -98 -153 -169 -235 -39 -45
-117 -121 -173 -168 -138 -117 -138 -117 -178 -145 -19 -14 -42 -30 -50 -37
-51 -43 -531 -364 -669 -448 -91 -56 -285 -189 -316 -218 -11 -10 -39 -33 -62
-50 -73 -55 -314 -307 -390 -407 -189 -252 -308 -507 -362 -778 -14 -69 -15
-519 -1 -527 7 -4 10 57 10 176 0 222 18 341 77 519 47 142 169 367 259 479
163 203 309 348 501 495 66 51 163 116 433 291 193 125 481 336 598 437 87 76
278 268 332 333 105 128 198 294 265 475 9 25 21 55 27 67 6 11 8 27 5 35 -3
9 -7 7 -12 -7z"/>
<path d="M3689 2207 c-186 -112 -521 -408 -741 -656 -285 -321 -368 -408 -458
-483 -181 -152 -303 -207 -457 -208 -127 0 -202 30 -288 114 -88 87 -110 138
-110 251 0 81 3 95 29 139 86 146 266 240 461 239 285 -1 418 -262 223 -438
-67 -61 -138 -88 -248 -93 -83 -3 -104 -1 -169 22 -82 29 -91 30 -91 17 0 -13
143 -59 205 -67 105 -13 258 39 333 114 21 21 52 64 67 95 24 50 27 66 23 129
-7 139 -80 228 -221 273 -295 94 -630 -101 -654 -381 -15 -187 84 -336 273
-411 60 -24 83 -27 174 -27 115 1 156 11 272 69 152 76 302 214 568 520 140
161 289 314 440 449 155 139 271 236 282 236 5 0 -46 -60 -113 -132 -387 -421
-638 -830 -639 -1040 0 -90 40 -117 112 -75 42 24 89 77 565 641 92 110 228
262 301 338 136 140 269 264 277 257 2 -3 -44 -58 -101 -124 -359 -410 -576
-779 -573 -976 1 -115 43 -164 137 -164 48 1 66 7 115 38 60 39 214 181 249
230 45 62 2 34 -106 -71 -111 -107 -191 -162 -236 -162 -35 0 -62 37 -55 73
46 230 203 531 552 1059 79 119 143 222 143 228 0 18 -61 -19 -130 -79 -184
-158 -419 -413 -772 -836 -246 -296 -310 -365 -338 -365 -29 0 -3 73 95 270
148 299 505 833 644 964 29 28 41 56 23 56 -5 0 -33 -15 -63 -33z"/>
<path d="M960 376 c0 -20 5 -36 10 -36 6 0 10 13 10 29 0 17 -4 33 -10 36 -6
4 -10 -8 -10 -29z"/>
<path d="M1066 275 c-15 -8 -37 -15 -47 -15 -23 0 -23 -3 -5 -39 28 -54 99
-79 132 -47 26 26 28 72 5 95 -25 25 -46 26 -85 6z"/>
</g>
</svg>
